<svg width="767" height="716" viewBox="0 0 767 716" fill="none" xmlns="http://www.w3.org/2000/svg">
<path d="M332.656 298.75C322.031 298.75 313.437 307.344 313.437 317.969C313.437 328.594 322.031 337.188 332.656 337.188H434.219C444.844 337.188 453.437 328.594 453.437 317.969C453.437 307.344 444.844 298.75 434.219 298.75H402.656V271.719H509.531C534.531 271.719 554.844 251.406 554.844 226.406V45.3125C554.844 20.3125 534.531 0 509.531 0H257.344C232.344 0 212.031 20.3125 212.031 45.3125V226.562C212.031 251.562 232.344 271.875 257.344 271.875H364.219V298.906H332.656V298.75ZM250.312 226.562V45.3125C250.312 41.4062 253.437 38.2812 257.344 38.2812H509.531C513.437 38.2812 516.562 41.4062 516.562 45.3125V226.562C516.562 230.469 513.437 233.594 509.531 233.594H257.344C253.437 233.437 250.312 230.313 250.312 226.562Z" fill="currentColor"/>
<path d="M241.25 696.406C241.25 685.781 232.656 677.187 222.031 677.187H190.469V650.156H297.5C322.5 650.156 342.812 629.844 342.812 604.844V423.75C342.812 398.75 322.5 378.438 297.5 378.438H45.3125C20.3125 378.438 0 398.75 0 423.75V604.844C0 629.844 20.3125 650.156 45.3125 650.156H152.188V677.187H120.625C110 677.187 101.406 685.781 101.406 696.406C101.406 707.031 110 715.625 120.625 715.625H222.187C232.656 715.469 241.25 707.031 241.25 696.406ZM38.2812 605V423.75C38.2812 419.844 41.4062 416.719 45.3125 416.719H297.5C301.406 416.719 304.531 419.844 304.531 423.75V604.844C304.531 608.75 301.406 611.875 297.5 611.875H45.3125C41.4062 611.875 38.2812 608.75 38.2812 605Z" fill="currentColor"/>
<path d="M721.562 650.156C746.562 650.156 766.875 629.844 766.875 604.844V423.75C766.875 398.75 746.562 378.438 721.562 378.438H469.375C444.375 378.438 424.062 398.75 424.062 423.75V604.844C424.062 629.844 444.375 650.156 469.375 650.156H576.25V677.187H544.688C534.063 677.187 525.469 685.781 525.469 696.406C525.469 707.031 534.063 715.625 544.688 715.625H646.25C656.875 715.625 665.469 707.031 665.469 696.406C665.469 685.781 656.875 677.187 646.25 677.187H614.688V650.156H721.562ZM462.344 605V423.75C462.344 419.844 465.469 416.719 469.375 416.719H721.562C725.469 416.719 728.594 419.844 728.594 423.75V604.844C728.594 608.75 725.469 611.875 721.562 611.875H469.375C465.469 611.875 462.344 608.75 462.344 605Z" fill="currentColor"/>
<path d="M62.0312 92.5C51.4062 92.5 42.8125 101.094 42.8125 111.719V317.969C42.8125 328.594 51.4062 337.188 62.0312 337.188C72.6562 337.188 81.25 328.594 81.25 317.969V130.781H160C170.625 130.781 179.219 122.188 179.219 111.563C179.219 100.938 170.625 92.3438 160 92.3438H62.0312V92.5Z" fill="currentColor"/>
<path d="M587.656 111.719C587.656 122.344 596.25 130.938 606.875 130.938H685.781V318.125C685.781 328.75 694.375 337.344 705 337.344C715.625 337.344 724.219 328.75 724.219 318.125V111.875C724.219 101.25 715.625 92.6564 705 92.6564H606.875C596.25 92.5001 587.656 101.094 587.656 111.719Z" fill="currentColor"/>
</svg>
